HIERARCHY
ROOT Hips
{
	OFFSET 0.000000 0.000000 0.000000
	CHANNELS 6 Xposition Yposition Zposition Yrotation Xrotation Zrotation
	JOINT Chest
	{
		OFFSET 0.000000 -0.009281 11.569106
		CHANNELS 3 Yrotation Xrotation Zrotation
		JOINT Chest2
		{
			OFFSET -0.000000 0.016865 9.269641
			CHANNELS 3 Yrotation Xrotation Zrotation
			JOINT Chest3
			{
				OFFSET -0.000000 0.000001 8.374491
				CHANNELS 3 Yrotation Xrotation Zrotation
				JOINT Chest4
				{
					OFFSET -0.000000 0.000001 8.374493
					CHANNELS 3 Yrotation Xrotation Zrotation
					JOINT Neck
					{
						OFFSET -0.000000 0.000002 12.152554
						CHANNELS 3 Yrotation Xrotation Zrotation
						JOINT Head
						{
							OFFSET -0.000000 0.040101 7.802319
							CHANNELS 3 Yrotation Xrotation Zrotation
							End Site
							{
								OFFSET -0.000000 0.020947 14.853096
							}
						}
					}
					JOINT RightCollar
					{
						OFFSET 2.894404 0.000001 6.791374
						CHANNELS 3 Yrotation Xrotation Zrotation
						JOINT RightShoulder
						{
							OFFSET 13.574684 0.000001 0.000000
							CHANNELS 3 Yrotation Xrotation Zrotation
							JOINT RightElbow
							{
								OFFSET 23.923903 0.000002 0.000000
								CHANNELS 3 Yrotation Xrotation Zrotation
								JOINT RightWrist
								{
									OFFSET 19.846718 0.012767 0.000000
									CHANNELS 3 Yrotation Xrotation Zrotation
									End Site
									{
										OFFSET 14.973145 0.000001 0.000000
									}
								}
							}
						}
					}
					JOINT LeftCollar
					{
						OFFSET -2.894404 0.000001 6.791374
						CHANNELS 3 Yrotation Xrotation Zrotation
						JOINT LeftShoulder
						{
							OFFSET -13.574684 -0.000001 0.000000
							CHANNELS 3 Yrotation Xrotation Zrotation
							JOINT LeftElbow
							{
								OFFSET -23.923903 -0.000002 0.000000
								CHANNELS 3 Yrotation Xrotation Zrotation
								JOINT LeftWrist
								{
									OFFSET -19.846718 0.012763 0.000000
									CHANNELS 3 Yrotation Xrotation Zrotation
									End Site
									{
										OFFSET -14.973145 -0.000001 0.000000
									}
								}
							}
						}
					}
				}
			}
		}
	}
	JOINT RightHip
	{
		OFFSET 9.469263 0.004643 0.045487
		CHANNELS 3 Yrotation Xrotation Zrotation
		JOINT RightKnee
		{
			OFFSET 0.000000 0.002661 -40.478676
			CHANNELS 3 Yrotation Xrotation Zrotation
			JOINT RightAnkle
			{
				OFFSET 0.000000 0.049106 -35.224068
				CHANNELS 3 Yrotation Xrotation Zrotation
				JOINT RightToe
				{
					OFFSET -0.000001 12.539529 -6.151390
					CHANNELS 3 Yrotation Xrotation Zrotation
					End Site
					{
						OFFSET -0.000001 5.044994 -1.291870
					}
				}
			}
		}
	}
	JOINT LeftHip
	{
		OFFSET -9.469263 0.004641 0.045487
		CHANNELS 3 Yrotation Xrotation Zrotation
		JOINT LeftKnee
		{
			OFFSET 0.000000 0.002661 -40.478676
			CHANNELS 3 Yrotation Xrotation Zrotation
			JOINT LeftAnkle
			{
				OFFSET 0.000000 0.049106 -35.224068
				CHANNELS 3 Yrotation Xrotation Zrotation
				JOINT LeftToe
				{
					OFFSET -0.000001 12.539529 -6.151390
					CHANNELS 3 Yrotation Xrotation Zrotation
					End Site
					{
						OFFSET -0.000001 5.044994 -1.291870
					}
				}
			}
		}
	}
}
MOTION
Frames: 9
Frame Time: 0.016667
-0.783814 -14.142081 88.009705 1.136310 -0.118661 -98.583488 3.668177 -5.926957 -2.993649 1.650470 -2.672951 -1.260404 1.650469 -2.672951 -1.260403 1.232119 -2.008142 -0.937917 0.475965 -22.778577 -0.075137 0.837881 -6.117879 -0.007081 9.100761 2.317155 -2.540006 51.502772 28.843267 3.680239 2.973478 -6.474205 3.450885 -37.316489 26.962932 30.632562 -8.796142 0.059781 -5.144720 -65.550828 24.604781 -42.357282 -32.059293 -17.497217 -63.016719 32.728798 24.977775 -26.854605 4.091310 41.428683 12.470832 2.194793 -14.317315 -14.163534 13.460685 -29.724027 9.174880 -5.980973 -0.737455 -0.084703 -8.105557 1.692706 2.826771 -3.674710 -6.651877 17.516698 30.168338 -33.075802 -28.962785 0.950659 46.966194 0.383934 
-0.466744 -14.018243 87.927353 1.085853 0.205515 -97.697878 3.680278 -5.931449 -3.517702 1.664128 -2.681661 -1.492338 1.664128 -2.681663 -1.492339 1.241323 -2.015341 -1.111754 0.385132 -22.820345 -0.017896 0.689464 -6.195429 0.071422 8.855043 2.620382 -2.726747 50.622562 29.674426 2.446482 2.948852 -6.068103 3.523944 -37.403065 27.076634 30.663683 -8.916564 0.198677 -5.508148 -65.295891 23.561207 -43.050884 -31.813631 -17.863786 -62.632418 32.682537 25.035666 -27.010722 3.999919 41.257198 11.585572 2.411806 -13.760214 -14.833759 14.750627 -31.223612 9.009170 -6.788299 -0.136493 -0.064125 -8.486229 1.639912 2.631072 -3.802243 -6.881494 17.684920 30.884992 -33.184372 -29.710114 1.141244 47.610711 0.480853 
-0.175242 -13.873569 87.823410 1.024741 0.625498 -96.867307 3.621999 -5.938149 -4.008899 1.660714 -2.693655 -1.714752 1.660713 -2.693656 -1.714752 1.237754 -2.024937 -1.278512 0.283406 -22.864118 0.041091 0.521857 -6.276634 0.150199 8.647364 2.900006 -2.856936 49.669569 30.511777 1.215907 2.899557 -5.714196 3.558483 -37.536507 27.219788 30.695922 -8.897666 0.101562 -5.766290 -65.196273 22.441971 -43.995909 -31.768419 -18.173943 -62.192410 32.705654 25.021461 -27.246485 3.888761 41.045400 10.852442 2.593146 -13.233715 -15.834861 16.015614 -32.596460 8.849786 -7.433479 0.255411 -0.054735 -8.967354 1.620571 2.455145 -3.950456 -7.187223 17.932535 31.394968 -33.242063 -30.170458 1.320779 48.177863 0.567019 
0.089054 -13.710452 87.699791 0.949453 1.089481 -96.077819 3.520620 -5.943966 -4.467281 1.637027 -2.708912 -1.927183 1.637025 -2.708913 -1.927185 1.219008 -2.036884 -1.437867 0.194950 -22.898211 0.096578 0.377247 -6.339858 0.226340 8.477362 3.199426 -2.995826 48.694912 31.249154 -0.025551 2.819512 -5.308935 3.580539 -37.593556 27.279419 30.744912 -8.855847 -0.055405 -6.060660 -64.964463 21.274716 -44.960530 -31.778483 -18.311940 -61.755278 32.622363 24.538942 -27.545525 3.700424 40.764874 10.191002 2.843276 -12.735432 -17.036968 17.144005 -33.534573 8.422728 -7.807051 0.373354 -0.067750 -9.484185 1.677350 2.343934 -4.129019 -7.674985 18.178772 32.001632 -33.109994 -30.724954 1.452941 48.706253 0.629243 
0.330414 -13.530769 87.555885 0.841901 1.574013 -95.336108 3.403181 -5.984590 -4.920206 1.605685 -2.739160 -2.137357 1.605685 -2.739159 -2.137356 1.194465 -2.060031 -1.595526 0.104208 -22.904145 0.160014 0.230709 -6.350803 0.316311 8.315815 3.588385 -3.081798 47.683258 31.849903 -1.337063 2.725297 -4.753068 3.651357 -37.529789 27.244214 30.820037 -8.873746 0.126466 -6.254522 -64.540479 19.872338 -45.691356 -31.650670 -18.361512 -61.317613 32.478789 23.832408 -27.830898 3.490689 40.369498 9.560632 3.084572 -12.264282 -18.235902 18.107385 -34.147930 8.080076 -7.892686 0.327164 -0.090356 -10.043743 1.813506 2.178902 -4.296836 -8.393055 18.562757 32.560144 -32.818694 -31.268305 1.593223 49.205390 0.693718 
0.566474 -13.327442 87.391022 0.717299 2.094202 -94.646874 3.221563 -6.054532 -5.322173 1.553331 -2.778672 -2.326098 1.553331 -2.778674 -2.326098 1.154206 -2.089967 -1.737180 0.060588 -22.891174 0.205780 0.164407 -6.326687 0.387120 8.168713 3.825577 -3.320535 46.874844 32.378621 -2.445097 2.649164 -4.052172 3.780109 -37.463144 27.209829 30.891590 -8.840298 0.190740 -6.649989 -64.141678 18.707992 -46.532095 -31.332970 -18.542299 -60.834214 32.377146 23.434499 -28.017535 3.330738 39.805902 8.943864 3.204955 -11.729310 -19.357166 18.953102 -34.596080 7.836418 -7.784725 0.223905 -0.110821 -10.661427 1.951165 2.020293 -4.448462 -9.169990 19.017871 33.103017 -32.408274 -31.825823 1.726725 49.647443 0.749086 
0.818461 -13.104937 87.206764 0.557976 2.651496 -94.015935 3.015683 -6.136224 -5.711537 1.490913 -2.816717 -2.507717 1.490912 -2.816716 -2.507717 1.106416 -2.118711 -1.873546 0.023134 -22.897376 0.254405 0.109930 -6.338226 0.464687 7.993166 3.958459 -3.662520 46.165109 32.782555 -3.378056 2.592485 -3.391229 3.855753 -37.521730 27.293680 30.914823 -8.801670 0.129026 -7.074569 -63.866203 17.745057 -47.481692 -30.972944 -18.958643 -60.248880 32.363496 23.378064 -28.148178 3.226955 39.024685 8.247203 3.176556 -11.079433 -20.314569 19.884404 -35.024810 7.458547 -7.665740 0.175407 -0.121054 -11.315749 2.058008 1.678417 -4.660490 -9.989668 19.633160 33.240741 -32.125812 -31.876896 1.938012 50.061117 0.840676 
1.092131 -12.885444 87.006790 0.395023 3.194402 -93.437562 2.863904 -6.230859 -6.116903 1.427501 -2.856378 -2.692452 1.427501 -2.856376 -2.692452 1.057835 -2.148633 -2.012257 -0.045805 -22.917315 0.325366 0.004641 -6.375184 0.574061 7.804058 4.128878 -3.876120 45.378168 33.242722 -4.325996 2.493934 -3.022048 3.818241 -37.710649 27.471550 30.901391 -8.827921 0.258695 -7.377652 -63.634940 16.677486 -48.288065 -30.684420 -19.458094 -59.615906 32.261828 23.240661 -28.320210 3.137151 38.056328 7.281490 3.088725 -10.305122 -20.965715 21.033856 -35.495499 6.758436 -7.623788 0.242320 -0.122415 -11.878667 2.193419 1.092415 -5.052519 -10.919339 20.450761 33.296937 -31.784972 -31.848243 2.242276 50.451349 0.989212 
1.365276 -12.679150 86.795174 0.281086 3.718550 -92.902908 2.736429 -6.290768 -6.519151 1.360202 -2.886142 -2.875485 1.360203 -2.886141 -2.875489 1.006372 -2.171076 -2.149743 -0.137512 -22.948648 0.415074 -0.136724 -6.433185 0.711117 7.689215 4.249924 -3.876266 44.415863 33.864133 -5.373223 2.380322 -2.885189 3.732130 -37.894849 27.580176 30.867483 -8.777858 0.252385 -7.676810 -63.509790 15.590967 -49.155372 -30.445859 -19.844099 -59.051746 31.981992 22.672137 -28.542785 3.028654 37.078778 5.874381 3.004004 -9.592798 -21.248350 22.217031 -36.302186 6.528250 -7.592794 0.470401 -0.099672 -12.354663 2.424296 0.428069 -5.585610 -11.972161 21.345098 33.665155 -31.145239 -32.211848 2.531245 50.784048 1.138948 
